<svg width="20" height="20" viewBox="0 0 20 20" fill="none" xmlns="http://www.w3.org/2000/svg">
<path d="M16.6665 9.25C17.0807 9.25 17.4165 9.58579 17.4165 10C17.4165 10.4142 17.0807 10.75 16.6665 10.75H3.3335C2.91928 10.75 2.5835 10.4142 2.5835 10C2.5835 9.58579 2.91928 9.25 3.3335 9.25H16.6665Z" fill="black"/>
<path d="M11.8966 5.38877C12.1422 5.05528 12.611 4.98404 12.9445 5.22959H12.9464C12.9471 5.23006 12.9473 5.23168 12.9484 5.23252C12.9506 5.23418 12.954 5.2363 12.9582 5.23936C12.9666 5.24562 12.9794 5.25488 12.9953 5.2667C13.0269 5.29029 13.0729 5.32441 13.131 5.36826C13.2476 5.45632 13.4137 5.58325 13.6124 5.73838C14.0094 6.04813 14.5414 6.47499 15.0753 6.93858C15.6055 7.39888 16.1554 7.91023 16.5783 8.38877C16.7889 8.62715 16.9836 8.87532 17.13 9.11826C17.2641 9.34069 17.4171 9.65398 17.4171 10.0001C17.417 10.346 17.264 10.6586 17.13 10.881C16.9836 11.1239 16.7888 11.3721 16.5783 11.6105C16.1554 12.089 15.6055 12.6013 15.0753 13.0616C14.5415 13.5252 14.0093 13.9511 13.6124 14.2608C13.4136 14.416 13.2476 14.5429 13.131 14.631C13.0728 14.6749 13.0269 14.7099 12.9953 14.7335C12.9795 14.7453 12.9666 14.7536 12.9582 14.7599C12.954 14.763 12.9506 14.766 12.9484 14.7677C12.9475 14.7683 12.947 14.7692 12.9464 14.7696C12.613 15.0152 12.1423 14.9447 11.8966 14.6114C11.651 14.2779 11.7223 13.8082 12.0558 13.5626L12.0578 13.5606C12.0595 13.5594 12.0621 13.5574 12.0656 13.5548C12.0729 13.5494 12.0841 13.5413 12.0988 13.5304C12.1281 13.5085 12.1721 13.4757 12.2277 13.4337C12.3389 13.3497 12.4981 13.2277 12.6896 13.0782C13.0739 12.7783 13.5842 12.3696 14.0919 11.9288C14.6033 11.4848 15.0949 11.0228 15.4533 10.6173C15.6332 10.4136 15.7645 10.2415 15.8458 10.1065C15.8742 10.0594 15.8887 10.0229 15.8996 9.99912C15.8886 9.9753 15.8739 9.93923 15.8458 9.89268C15.7645 9.7577 15.6332 9.58559 15.4533 9.38193C15.095 8.9765 14.6032 8.51526 14.0919 8.07139C13.5842 7.63055 13.0739 7.22094 12.6896 6.921C12.4979 6.77137 12.3379 6.64954 12.2267 6.56553C12.1712 6.52364 12.128 6.49065 12.0988 6.46885C12.0842 6.45799 12.0729 6.44983 12.0656 6.44443C12.0621 6.44183 12.0595 6.43983 12.0578 6.43858L12.0558 6.4376C11.7223 6.19199 11.6511 5.72229 11.8966 5.38877Z" fill="black"/>
</svg>
