<svg width="180" height="180" viewBox="0 0 180 180" fill="none" xmlns="http://www.w3.org/2000/svg">
<rect width="180" height="180" rx="20" fill="#000510"/>
<path d="M64.0728 67.8686C67.7751 63.2954 72.469 59.5458 77.8308 56.8785C83.1925 54.2112 89.0945 52.6897 95.1297 52.4189C101.165 52.148 107.189 53.1343 112.788 55.3097C118.387 57.4851 123.426 60.7978 127.559 65.0194L113.766 77.4066C111.504 75.0957 108.745 73.2823 105.681 72.0915C102.616 70.9007 99.3182 70.3608 96.0146 70.5091C92.7109 70.6574 89.4802 71.4902 86.5452 72.9503C83.6102 74.4104 81.0407 76.4629 79.014 78.9663L64.0728 67.8686Z" fill="white"/>
<path d="M127.625 113.277C123.75 117.717 118.915 121.298 113.455 123.775C107.994 126.252 102.038 127.565 95.9965 127.623C89.9551 127.681 83.9723 126.484 78.4609 124.113C72.9495 121.742 68.0406 118.254 64.0728 113.89L78.3311 101.996C80.5031 104.385 83.1902 106.294 86.2072 107.592C89.2241 108.89 92.4991 109.546 95.8062 109.514C99.1132 109.482 102.374 108.763 105.363 107.407C108.352 106.052 110.998 104.091 113.12 101.661L127.625 113.277Z" fill="white"/>
<path d="M86.728 90.7648L63.8262 108.784L63.8262 72.7456L86.728 90.7648Z" fill="#99E39E"/>
<path d="M75.2764 90.7648L52.3745 108.784L52.3745 72.7456L75.2764 90.7648Z" fill="#99E39E"/>
</svg>
